<?xml version="1.0" encoding="utf-8"?>
<svg version="1.1" xmlns:xlink="http://www.w3.org/1999/xlink" width="20px" height="20px" xmlns="http://www.w3.org/2000/svg">
  <g transform="matrix(1 0 0 1 -127 -264 )">
    <path d="M 19.6387096774194 2.76094276094276  C 19.8795698924731 3.07519640852974  20 3.45679012345679  20 3.90572390572391  C 20 4.35465768799102  19.8795698924731 4.73625140291807  19.6387096774194 5.05050505050505  L 10.2967741935484 17.2390572390572  L 8.54193548387097 19.5286195286195  C 8.30107526881721 19.8428731762065  8.00860215053764 20  7.66451612903226 20  C 7.32043010752688 20  7.02795698924731 19.8428731762065  6.78709677419355 19.5286195286195  L 5.03225806451613 17.2390572390572  L 0.361290322580645 11.1447811447811  C 0.120430107526882 10.8305274971942  0 10.4489337822671  0 10  C 0 9.55106621773288  0.120430107526882 9.16947250280584  0.361290322580645 8.85521885521886  L 2.11612903225806 6.56565656565657  C 2.35698924731183 6.25140291806958  2.6494623655914 6.09427609427609  2.99354838709677 6.09427609427609  C 3.33763440860215 6.09427609427609  3.63010752688172 6.25140291806958  3.87096774193548 6.56565656565657  L 7.66451612903226 11.5319865319865  L 16.1290322580645 0.471380471380471  C 16.3698924731183 0.15712682379349  16.6623655913979 0  17.0064516129032 0  C 17.3505376344086 0  17.6430107526882 0.15712682379349  17.8838709677419 0.471380471380471  L 19.6387096774194 2.76094276094276  Z " fill-rule="nonzero" fill="#000000" stroke="none" transform="matrix(1 0 0 1 127 264 )" />
  </g>
</svg>