<?xml version="1.0" encoding="utf-8"?>
<svg version="1.1" xmlns:xlink="http://www.w3.org/1999/xlink" width="16px" height="16px" xmlns="http://www.w3.org/2000/svg">
  <g transform="matrix(1 0 0 1 -128 -337 )">
    <path d="M 15.4722222222222 0.296875  C 15.8240740740741 0.494791666666664  16 0.729166666666664  16 1  L 16 15  C 16 15.2708333333333  15.8240740740741 15.5052083333333  15.4722222222222 15.703125  C 15.1203703703704 15.9010416666667  14.7037037037037 16  14.2222222222222 16  C 13.7407407407407 16  13.3240740740741 15.9010416666667  12.9722222222222 15.703125  L 0.527777777777778 8.703125  C 0.175925925925926 8.50520833333333  0 8.27083333333333  0 8  C 0 7.72916666666667  0.175925925925926 7.49479166666667  0.527777777777778 7.296875  L 12.9722222222222 0.296875  C 13.3240740740741 0.0989583333333321  13.7407407407407 0  14.2222222222222 0  C 14.7037037037037 0  15.1203703703704 0.0989583333333321  15.4722222222222 0.296875  Z " fill-rule="nonzero" fill="#000000" stroke="none" transform="matrix(1 0 0 1 128 337 )" />
  </g>
</svg>