<?xml version="1.0" encoding="utf-8"?>
<svg version="1.1" xmlns:xlink="http://www.w3.org/1999/xlink" width="16px" height="16px" xmlns="http://www.w3.org/2000/svg">
  <g transform="matrix(1 0 0 1 -253 -337 )">
    <path d="M 15.4722222222222 7.296875  C 15.8240740740741 7.49479166666667  16 7.72916666666667  16 8  C 16 8.27083333333333  15.8240740740741 8.50520833333333  15.4722222222222 8.703125  L 3.02777777777778 15.703125  C 2.67592592592593 15.9010416666667  2.25925925925926 16  1.77777777777778 16  C 1.2962962962963 16  0.87962962962963 15.9010416666667  0.527777777777778 15.703125  C 0.175925925925926 15.5052083333333  0 15.2708333333333  0 15  L 0 1  C 0 0.729166666666664  0.175925925925926 0.494791666666664  0.527777777777778 0.296875  C 0.87962962962963 0.0989583333333321  1.2962962962963 0  1.77777777777778 0  C 2.25925925925926 0  2.67592592592593 0.0989583333333321  3.02777777777778 0.296875  L 15.4722222222222 7.296875  Z " fill-rule="nonzero" fill="#000000" stroke="none" transform="matrix(1 0 0 1 253 337 )" />
  </g>
</svg>