<?xml version="1.0" encoding="utf-8"?>
<svg version="1.1" xmlns:xlink="http://www.w3.org/1999/xlink" width="16px" height="16px" xmlns="http://www.w3.org/2000/svg">
  <g transform="matrix(1 0 0 1 -200 -432 )">
    <path d="M 11.796875 8.46753246753247  L 0.703125 15.8441558441558  C 0.505208333333333 15.9757575757576  0.338541666666667 16.0207792207792  0.203125 15.9792207792208  C 0.0677083333333334 15.9376623376623  0 15.8268398268398  0 15.6467532467532  L 0 0.353246753246752  C 0 0.173160173160172  0.0677083333333334 0.0623376623376615  0.203125 0.0207792207792199  C 0.338541666666667 -0.0207792207792217  0.505208333333333 0.0242424242424235  0.703125 0.155844155844155  L 11.796875 7.53246753246753  C 11.890625 7.5948051948052  11.9583333333333 7.66060606060606  12 7.72987012987013  L 12 0.685714285714285  C 12 0.505627705627704  12.0989583333333 0.349783549783549  12.296875 0.218181818181819  C 12.4947916666667 0.086580086580085  12.7291666666667 0.0207792207792199  13 0.0207792207792199  L 15 0.0207792207792199  C 15.2708333333333 0.0207792207792199  15.5052083333333 0.086580086580085  15.703125 0.218181818181819  C 15.9010416666667 0.349783549783549  16 0.505627705627704  16 0.685714285714285  L 16 15.3142857142857  C 16 15.4943722943723  15.9010416666667 15.6502164502164  15.703125 15.7818181818182  C 15.5052083333333 15.9134199134199  15.2708333333333 15.9792207792208  15 15.9792207792208  L 13 15.9792207792208  C 12.7291666666667 15.9792207792208  12.4947916666667 15.9134199134199  12.296875 15.7818181818182  C 12.0989583333333 15.6502164502164  12 15.4943722943723  12 15.3142857142857  L 12 8.27012987012987  C 11.9583333333333 8.33939393939394  11.890625 8.4051948051948  11.796875 8.46753246753247  Z " fill-rule="nonzero" fill="#000000" stroke="none" transform="matrix(1 0 0 1 200 432 )" />
  </g>
</svg>