<?xml version="1.0" encoding="utf-8"?>
<svg version="1.1" xmlns:xlink="http://www.w3.org/1999/xlink" width="13px" height="13px" xmlns="http://www.w3.org/2000/svg">
  <g transform="matrix(1 0 0 1 -494 -96 )">
    <path d="M 1 9.98214285714286  L 1 12.0714285714286  L 3.25 12.0714285714286  L 3.25 9.98214285714286  L 1 9.98214285714286  Z M 3.75 9.98214285714286  L 3.75 12.0714285714286  L 6.25 12.0714285714286  L 6.25 9.98214285714286  L 3.75 9.98214285714286  Z M 1 7.19642857142857  L 1 9.51785714285714  L 3.25 9.51785714285714  L 3.25 7.19642857142857  L 1 7.19642857142857  Z M 3.75 7.19642857142857  L 3.75 9.51785714285714  L 6.25 9.51785714285714  L 6.25 7.19642857142857  L 3.75 7.19642857142857  Z M 1 4.64285714285714  L 1 6.73214285714286  L 3.25 6.73214285714286  L 3.25 4.64285714285714  L 1 4.64285714285714  Z M 6.75 9.98214285714286  L 6.75 12.0714285714286  L 9.25 12.0714285714286  L 9.25 9.98214285714286  L 6.75 9.98214285714286  Z M 3.75 4.64285714285714  L 3.75 6.73214285714286  L 6.25 6.73214285714286  L 6.25 4.64285714285714  L 3.75 4.64285714285714  Z M 9.75 9.98214285714286  L 9.75 12.0714285714286  L 12 12.0714285714286  L 12 9.98214285714286  L 9.75 9.98214285714286  Z M 6.75 7.19642857142857  L 6.75 9.51785714285714  L 9.25 9.51785714285714  L 9.25 7.19642857142857  L 6.75 7.19642857142857  Z M 3.92578125 3.41322544642857  C 3.97526041666667 3.36728050595238  4 3.31287202380952  4 3.25  L 4 1.16071428571429  C 4 1.09784226190476  3.97526041666667 1.0434337797619  3.92578125 0.997488839285714  C 3.87630208333333 0.951543898809523  3.81770833333333 0.928571428571428  3.75 0.928571428571428  L 3.25 0.928571428571428  C 3.18229166666667 0.928571428571428  3.12369791666667 0.951543898809523  3.07421875 0.997488839285714  C 3.02473958333333 1.0434337797619  3 1.09784226190476  3 1.16071428571429  L 3 3.25  C 3 3.31287202380952  3.02473958333333 3.36728050595238  3.07421875 3.41322544642857  C 3.12369791666667 3.45917038690476  3.18229166666667 3.48214285714286  3.25 3.48214285714286  L 3.75 3.48214285714286  C 3.81770833333333 3.48214285714286  3.87630208333333 3.45917038690476  3.92578125 3.41322544642857  Z M 9.75 7.19642857142857  L 9.75 9.51785714285714  L 12 9.51785714285714  L 12 7.19642857142857  L 9.75 7.19642857142857  Z M 6.75 4.64285714285714  L 6.75 6.73214285714286  L 9.25 6.73214285714286  L 9.25 4.64285714285714  L 6.75 4.64285714285714  Z M 9.75 4.64285714285714  L 9.75 6.73214285714286  L 12 6.73214285714286  L 12 4.64285714285714  L 9.75 4.64285714285714  Z M 9.92578125 3.41322544642857  C 9.97526041666667 3.36728050595238  10 3.31287202380952  10 3.25  L 10 1.16071428571429  C 10 1.09784226190476  9.97526041666667 1.0434337797619  9.92578125 0.997488839285714  C 9.87630208333333 0.951543898809523  9.81770833333333 0.928571428571428  9.75 0.928571428571428  L 9.25 0.928571428571428  C 9.18229166666667 0.928571428571428  9.12369791666667 0.951543898809523  9.07421875 0.997488839285714  C 9.02473958333333 1.0434337797619  9 1.09784226190476  9 1.16071428571429  L 9 3.25  C 9 3.31287202380952  9.02473958333333 3.36728050595238  9.07421875 3.41322544642857  C 9.12369791666667 3.45917038690476  9.18229166666667 3.48214285714286  9.25 3.48214285714286  L 9.75 3.48214285714286  C 9.81770833333333 3.48214285714286  9.87630208333333 3.45917038690476  9.92578125 3.41322544642857  Z M 12.703125 2.1328125  C 12.9010416666667 2.31659226190476  13 2.53422619047619  13 2.78571428571429  L 13 12.0714285714286  C 13 12.3229166666667  12.9010416666667 12.5405505952381  12.703125 12.7243303571429  C 12.5052083333333 12.9081101190476  12.2708333333333 13  12 13  L 1 13  C 0.729166666666667 13  0.494791666666667 12.9081101190476  0.296875 12.7243303571429  C 0.0989583333333333 12.5405505952381  0 12.3229166666667  0 12.0714285714286  L 0 2.78571428571429  C 0 2.53422619047619  0.0989583333333333 2.31659226190476  0.296875 2.1328125  C 0.494791666666667 1.94903273809524  0.729166666666667 1.85714285714286  1 1.85714285714286  L 2 1.85714285714286  L 2 1.16071428571429  C 2 0.841517857142858  2.12239583333333 0.568266369047618  2.3671875 0.340959821428572  C 2.61197916666667 0.113653273809524  2.90625 0  3.25 0  L 3.75 0  C 4.09375 0  4.38802083333333 0.113653273809524  4.6328125 0.340959821428572  C 4.87760416666667 0.568266369047618  5 0.841517857142858  5 1.16071428571429  L 5 1.85714285714286  L 8 1.85714285714286  L 8 1.16071428571429  C 8 0.841517857142858  8.12239583333333 0.568266369047618  8.3671875 0.340959821428572  C 8.61197916666667 0.113653273809524  8.90625 0  9.25 0  L 9.75 0  C 10.09375 0  10.3880208333333 0.113653273809524  10.6328125 0.340959821428572  C 10.8776041666667 0.568266369047618  11 0.841517857142858  11 1.16071428571429  L 11 1.85714285714286  L 12 1.85714285714286  C 12.2708333333333 1.85714285714286  12.5052083333333 1.94903273809524  12.703125 2.1328125  Z " fill-rule="nonzero" fill="#8c8c8c" stroke="none" transform="matrix(1 0 0 1 494 96 )" />
  </g>
</svg>