<?xml version="1.0" encoding="utf-8"?>
<svg version="1.1" xmlns:xlink="http://www.w3.org/1999/xlink" width="20px" height="20px" xmlns="http://www.w3.org/2000/svg">
  <g transform="matrix(1 0 0 1 -943 -148 )">
    <path d="M 15.15625 18.0859375  C 15.3084935897436 17.9210069444444  15.3846153846154 17.7256944444444  15.3846153846154 17.5  C 15.3846153846154 17.2743055555556  15.3084935897436 17.0789930555556  15.15625 16.9140625  C 15.0040064102564 16.7491319444444  14.823717948718 16.6666666666667  14.6153846153846 16.6666666666667  C 14.4070512820513 16.6666666666667  14.2267628205128 16.7491319444444  14.0745192307692 16.9140625  C 13.9222756410256 17.0789930555556  13.8461538461538 17.2743055555556  13.8461538461538 17.5  C 13.8461538461538 17.7256944444444  13.9222756410256 17.9210069444444  14.0745192307692 18.0859375  C 14.2267628205128 18.2508680555556  14.4070512820513 18.3333333333333  14.6153846153846 18.3333333333333  C 14.823717948718 18.3333333333333  15.0040064102564 18.2508680555556  15.15625 18.0859375  Z M 18.2331730769231 18.0859375  C 18.3854166666667 17.9210069444444  18.4615384615385 17.7256944444444  18.4615384615385 17.5  C 18.4615384615385 17.2743055555556  18.3854166666667 17.0789930555556  18.2331730769231 16.9140625  C 18.0809294871795 16.7491319444444  17.900641025641 16.6666666666667  17.6923076923077 16.6666666666667  C 17.4839743589744 16.6666666666667  17.3036858974359 16.7491319444444  17.1514423076923 16.9140625  C 16.9991987179487 17.0789930555556  16.9230769230769 17.2743055555556  16.9230769230769 17.5  C 16.9230769230769 17.7256944444444  16.9991987179487 17.9210069444444  17.1514423076923 18.0859375  C 17.3036858974359 18.2508680555556  17.4839743589744 18.3333333333333  17.6923076923077 18.3333333333333  C 17.900641025641 18.3333333333333  18.0809294871795 18.2508680555556  18.2331730769231 18.0859375  Z M 19.6634615384615 13.6979166666667  C 19.8878205128205 13.9409722222222  20 14.2361111111111  20 14.5833333333333  L 20 18.75  C 20 19.0972222222222  19.8878205128205 19.3923611111111  19.6634615384615 19.6354166666667  C 19.4391025641026 19.8784722222222  19.1666666666667 20  18.8461538461538 20  L 1.15384615384615 20  C 0.833333333333333 20  0.560897435897436 19.8784722222222  0.336538461538462 19.6354166666667  C 0.112179487179487 19.3923611111111  0 19.0972222222222  0 18.75  L 0 14.5833333333333  C 0 14.2361111111111  0.112179487179487 13.9409722222222  0.336538461538462 13.6979166666667  C 0.560897435897436 13.4548611111111  0.833333333333333 13.3333333333333  1.15384615384615 13.3333333333333  L 6.74278846153846 13.3333333333333  L 8.36538461538462 15.1041666666667  C 8.83012820512821 15.5902777777778  9.375 15.8333333333333  10 15.8333333333333  C 10.625 15.8333333333333  11.1698717948718 15.5902777777778  11.6346153846154 15.1041666666667  L 13.2692307692308 13.3333333333333  L 18.8461538461538 13.3333333333333  C 19.1666666666667 13.3333333333333  19.4391025641026 13.4548611111111  19.6634615384615 13.6979166666667  Z M 15.3846153846154 6.66666666666667  C 15.7211538461538 6.66666666666667  15.9575320512821 6.8359375  16.09375 7.17447916666667  C 16.229967948718 7.53038194444444  16.1738782051282 7.83420138888889  15.9254807692308 8.0859375  L 10.5408653846154 13.9192708333333  C 10.3966346153846 14.0842013888889  10.2163461538462 14.1666666666667  10 14.1666666666667  C 9.78365384615385 14.1666666666667  9.60336538461539 14.0842013888889  9.45913461538462 13.9192708333333  L 4.07451923076923 8.0859375  C 3.8261217948718 7.83420138888889  3.77003205128205 7.53038194444444  3.90625 7.17447916666667  C 4.04246794871795 6.8359375  4.27884615384615 6.66666666666667  4.61538461538462 6.66666666666667  L 7.69230769230769 6.66666666666667  L 7.69230769230769 0.833333333333333  C 7.69230769230769 0.607638888888886  7.76842948717949 0.412326388888886  7.92067307692308 0.247395833333333  C 8.07291666666667 0.082465277777779  8.25320512820513 0  8.46153846153846 0  L 11.5384615384615 0  C 11.7467948717949 0  11.9270833333333 0.082465277777779  12.0793269230769 0.247395833333333  C 12.2315705128205 0.412326388888886  12.3076923076923 0.607638888888886  12.3076923076923 0.833333333333333  L 12.3076923076923 6.66666666666667  L 15.3846153846154 6.66666666666667  Z " fill-rule="nonzero" fill="#000000" stroke="none" transform="matrix(1 0 0 1 943 148 )" />
  </g>
</svg>