<?xml version="1.0" encoding="utf-8"?>
<svg version="1.1" xmlns:xlink="http://www.w3.org/1999/xlink" width="12px" height="12px" viewBox="34 193  12 12" xmlns="http://www.w3.org/2000/svg">
  <path d="M 40 193  C 43.36 193  46 195.64  46 199  C 46 202.36  43.36 205  40 205  C 36.64 205  34 202.36  34 199  C 34 195.64  36.64 193  40 193  Z " fill-rule="nonzero" fill="#f0f0f0" stroke="none" />
  <path d="M 40 193.5  C 43.08 193.5  45.5 195.92  45.5 199  C 45.5 202.08  43.08 204.5  40 204.5  C 36.92 204.5  34.5 202.08  34.5 199  C 34.5 195.92  36.92 193.5  40 193.5  Z " stroke-width="1" stroke="#797979" fill="none" />
  <path d="M 40 202  C 38.32 202  37 200.68  37 199  C 37 197.32  38.32 196  40 196  C 41.68 196  43 197.32  43 199  C 43 200.68  41.68 202  40 202  " fill-rule="nonzero" fill="#797979" stroke="none" />
</svg>