<?xml version="1.0" encoding="utf-8"?>
<svg version="1.1" xmlns:xlink="http://www.w3.org/1999/xlink" width="12px" height="12px" viewBox="34 215  12 12" xmlns="http://www.w3.org/2000/svg">
  <path d="M 40 215  C 43.36 215  46 217.64  46 221  C 46 224.36  43.36 227  40 227  C 36.64 227  34 224.36  34 221  C 34 217.64  36.64 215  40 215  Z " fill-rule="nonzero" fill="#ffffff" stroke="none" />
  <path d="M 40 215.5  C 43.08 215.5  45.5 217.92  45.5 221  C 45.5 224.08  43.08 226.5  40 226.5  C 36.92 226.5  34.5 224.08  34.5 221  C 34.5 217.92  36.92 215.5  40 215.5  Z " stroke-width="1" stroke="#797979" fill="none" />
  <path d="M 40 224  C 38.32 224  37 222.68  37 221  C 37 219.32  38.32 218  40 218  C 41.68 218  43 219.32  43 221  C 43 222.68  41.68 224  40 224  " fill-rule="nonzero" fill="#797979" stroke="none" />
</svg>