<?xml version="1.0" encoding="utf-8"?>
<svg version="1.1" xmlns:xlink="http://www.w3.org/1999/xlink" width="16px" height="16px" xmlns="http://www.w3.org/2000/svg">
  <g transform="matrix(1 0 0 1 -20 -37 )">
    <path d="M 12.0416666666667 0.607142857142858  L 15.2916666666667 3.39285714285714  C 15.4861111111111 3.55952380952381  15.6527777777778 3.78571428571429  15.7916666666667 4.07142857142857  C 15.9305555555556 4.35714285714286  16 4.61904761904762  16 4.85714285714286  L 16 15.1428571428571  C 16 15.3809523809524  15.9027777777778 15.5833333333333  15.7083333333333 15.75  C 15.5138888888889 15.9166666666667  15.2777777777778 16  15 16  L 1 16  C 0.722222222222222 16  0.486111111111111 15.9166666666667  0.291666666666667 15.75  C 0.0972222222222222 15.5833333333333  0 15.3809523809524  0 15.1428571428571  L 0 0.857142857142858  C 0 0.619047619047619  0.0972222222222222 0.416666666666666  0.291666666666667 0.25  C 0.486111111111111 0.0833333333333339  0.722222222222222 0  1 0  L 10.3333333333333 0  C 10.6111111111111 0  10.9166666666667 0.0595238095238102  11.25 0.178571428571429  C 11.5833333333333 0.297619047619047  11.8472222222222 0.44047619047619  12.0416666666667 0.607142857142858  Z M 11.09375 1.41071428571429  C 11.0104166666667 1.33928571428571  10.8680555555556 1.27380952380952  10.6666666666667 1.21428571428571  L 10.6666666666667 4.57142857142857  L 14.5833333333333 4.57142857142857  C 14.5138888888889 4.39880952380952  14.4375 4.27678571428571  14.3541666666667 4.20535714285714  L 11.09375 1.41071428571429  Z M 1.33333333333333 14.8571428571429  L 14.6666666666667 14.8571428571429  L 14.6666666666667 5.71428571428571  L 10.3333333333333 5.71428571428571  C 10.0555555555556 5.71428571428571  9.81944444444444 5.63095238095238  9.625 5.46428571428571  C 9.43055555555556 5.29761904761905  9.33333333333333 5.09523809523809  9.33333333333333 4.85714285714286  L 9.33333333333333 1.14285714285714  L 1.33333333333333 1.14285714285714  L 1.33333333333333 14.8571428571429  Z M 4 7.71428571428571  L 4 7.14285714285714  C 4 7.05952380952381  4.03125 6.99107142857143  4.09375 6.9375  C 4.15625 6.88392857142857  4.23611111111111 6.85714285714286  4.33333333333333 6.85714285714286  L 11.6666666666667 6.85714285714286  C 11.7638888888889 6.85714285714286  11.84375 6.88392857142857  11.90625 6.9375  C 11.96875 6.99107142857143  12 7.05952380952381  12 7.14285714285714  L 12 7.71428571428571  C 12 7.79761904761905  11.96875 7.86607142857143  11.90625 7.91964285714286  C 11.84375 7.97321428571429  11.7638888888889 8  11.6666666666667 8  L 4.33333333333333 8  C 4.23611111111111 8  4.15625 7.97321428571429  4.09375 7.91964285714286  C 4.03125 7.86607142857143  4 7.79761904761905  4 7.71428571428571  Z M 4.33333333333333 9.14285714285714  L 11.6666666666667 9.14285714285714  C 11.7638888888889 9.14285714285714  11.84375 9.16964285714286  11.90625 9.22321428571428  C 11.96875 9.27678571428572  12 9.34523809523809  12 9.42857142857143  L 12 10  C 12 10.0833333333333  11.96875 10.1517857142857  11.90625 10.2053571428571  C 11.84375 10.2589285714286  11.7638888888889 10.2857142857143  11.6666666666667 10.2857142857143  L 4.33333333333333 10.2857142857143  C 4.23611111111111 10.2857142857143  4.15625 10.2589285714286  4.09375 10.2053571428571  C 4.03125 10.1517857142857  4 10.0833333333333  4 10  L 4 9.42857142857143  C 4 9.34523809523809  4.03125 9.27678571428572  4.09375 9.22321428571428  C 4.15625 9.16964285714286  4.23611111111111 9.14285714285714  4.33333333333333 9.14285714285714  Z M 4.33333333333333 11.4285714285714  L 11.6666666666667 11.4285714285714  C 11.7638888888889 11.4285714285714  11.84375 11.4553571428571  11.90625 11.5089285714286  C 11.96875 11.5625  12 11.6309523809524  12 11.7142857142857  L 12 12.2857142857143  C 12 12.3690476190476  11.96875 12.4375  11.90625 12.4910714285714  C 11.84375 12.5446428571429  11.7638888888889 12.5714285714286  11.6666666666667 12.5714285714286  L 4.33333333333333 12.5714285714286  C 4.23611111111111 12.5714285714286  4.15625 12.5446428571429  4.09375 12.4910714285714  C 4.03125 12.4375  4 12.3690476190476  4 12.2857142857143  L 4 11.7142857142857  C 4 11.6309523809524  4.03125 11.5625  4.09375 11.5089285714286  C 4.15625 11.4553571428571  4.23611111111111 11.4285714285714  4.33333333333333 11.4285714285714  Z " fill-rule="nonzero" fill="#e3e673" stroke="none" transform="matrix(1 0 0 1 20 37 )" />
  </g>
</svg>