<?xml version="1.0" encoding="utf-8"?>
<svg version="1.1" xmlns:xlink="http://www.w3.org/1999/xlink" width="20px" height="20px" xmlns="http://www.w3.org/2000/svg">
  <g transform="matrix(1 0 0 1 -42 -35 )">
    <path d="M 15.0520833333333 0.758928571428572  L 19.1145833333333 4.24107142857143  C 19.3576388888889 4.44940476190476  19.5659722222222 4.73214285714286  19.7395833333333 5.08928571428571  C 19.9131944444444 5.44642857142857  20 5.77380952380952  20 6.07142857142857  L 20 18.9285714285714  C 20 19.2261904761905  19.8784722222222 19.4791666666667  19.6354166666667 19.6875  C 19.3923611111111 19.8958333333333  19.0972222222222 20  18.75 20  L 1.25 20  C 0.902777777777778 20  0.607638888888889 19.8958333333333  0.364583333333333 19.6875  C 0.121527777777778 19.4791666666667  0 19.2261904761905  0 18.9285714285714  L 0 1.07142857142857  C 0 0.773809523809523  0.121527777777778 0.520833333333333  0.364583333333333 0.3125  C 0.607638888888889 0.104166666666667  0.902777777777778 0  1.25 0  L 12.9166666666667 0  C 13.2638888888889 0  13.6458333333333 0.0744047619047628  14.0625 0.223214285714286  C 14.4791666666667 0.372023809523809  14.8090277777778 0.550595238095237  15.0520833333333 0.758928571428572  Z M 13.8671875 1.76339285714286  C 13.7630208333333 1.67410714285714  13.5850694444444 1.5922619047619  13.3333333333333 1.51785714285714  L 13.3333333333333 5.71428571428571  L 18.2291666666667 5.71428571428571  C 18.1423611111111 5.4985119047619  18.046875 5.34598214285714  17.9427083333333 5.25669642857143  L 13.8671875 1.76339285714286  Z M 2 18.5714285714286  L 18 18.5714285714286  L 18 7.14285714285714  L 12.9166666666667 7.14285714285714  C 12.5694444444444 7.14285714285714  12.2743055555556 7.03869047619047  12.03125 6.83035714285714  C 11.7881944444444 6.62202380952381  11.6666666666667 6.36904761904762  11.6666666666667 6.07142857142857  L 11.6666666666667 1.42857142857143  L 2 1.42857142857143  L 2 18.5714285714286  Z M 5 9.64285714285714  L 5 8.92857142857143  C 5 8.82440476190476  5.0390625 8.73883928571429  5.1171875 8.671875  C 5.1953125 8.60491071428571  5.29513888888889 8.57142857142857  5.41666666666667 8.57142857142857  L 14.5833333333333 8.57142857142857  C 14.7048611111111 8.57142857142857  14.8046875 8.60491071428571  14.8828125 8.671875  C 14.9609375 8.73883928571429  15 8.82440476190476  15 8.92857142857143  L 15 9.64285714285714  C 15 9.74702380952381  14.9609375 9.83258928571429  14.8828125 9.89955357142857  C 14.8046875 9.96651785714286  14.7048611111111 10  14.5833333333333 10  L 5.41666666666667 10  C 5.29513888888889 10  5.1953125 9.96651785714286  5.1171875 9.89955357142857  C 5.0390625 9.83258928571429  5 9.74702380952381  5 9.64285714285714  Z M 5.41666666666667 11.4285714285714  L 14.5833333333333 11.4285714285714  C 14.7048611111111 11.4285714285714  14.8046875 11.4620535714286  14.8828125 11.5290178571429  C 14.9609375 11.5959821428571  15 11.6815476190476  15 11.7857142857143  L 15 12.5  C 15 12.6041666666667  14.9609375 12.6897321428571  14.8828125 12.7566964285714  C 14.8046875 12.8236607142857  14.7048611111111 12.8571428571429  14.5833333333333 12.8571428571429  L 5.41666666666667 12.8571428571429  C 5.29513888888889 12.8571428571429  5.1953125 12.8236607142857  5.1171875 12.7566964285714  C 5.0390625 12.6897321428571  5 12.6041666666667  5 12.5  L 5 11.7857142857143  C 5 11.6815476190476  5.0390625 11.5959821428571  5.1171875 11.5290178571429  C 5.1953125 11.4620535714286  5.29513888888889 11.4285714285714  5.41666666666667 11.4285714285714  Z M 5.41666666666667 14.2857142857143  L 14.5833333333333 14.2857142857143  C 14.7048611111111 14.2857142857143  14.8046875 14.3191964285714  14.8828125 14.3861607142857  C 14.9609375 14.453125  15 14.5386904761905  15 14.6428571428571  L 15 15.3571428571429  C 15 15.4613095238095  14.9609375 15.546875  14.8828125 15.6138392857143  C 14.8046875 15.6808035714286  14.7048611111111 15.7142857142857  14.5833333333333 15.7142857142857  L 5.41666666666667 15.7142857142857  C 5.29513888888889 15.7142857142857  5.1953125 15.6808035714286  5.1171875 15.6138392857143  C 5.0390625 15.546875  5 15.4613095238095  5 15.3571428571429  L 5 14.6428571428571  C 5 14.5386904761905  5.0390625 14.453125  5.1171875 14.3861607142857  C 5.1953125 14.3191964285714  5.29513888888889 14.2857142857143  5.41666666666667 14.2857142857143  Z " fill-rule="nonzero" fill="#000000" stroke="none" transform="matrix(1 0 0 1 42 35 )" />
  </g>
</svg>